<mxfile host="app.diagrams.net" modified="2024-02-09T20:58:05.780Z" agent="Mozilla/5.0 (Windows NT 10.0; Win64; x64) AppleWebKit/537.36 (KHTML, like Gecko) Chrome/121.0.0.0 Safari/537.36" etag="_PNRuHPuyK1NI1qSPohk" version="23.1.2" type="device" pages="3">
  <diagram id="kVXEcTwCpZRiXw2DHqvi" name="1">
    <mxGraphModel dx="1032" dy="580" grid="1" gridSize="10" guides="1" tooltips="1" connect="1" arrows="1" fold="1" page="1" pageScale="1" pageWidth="827" pageHeight="1169" math="0" shadow="0">
      <root>
        <mxCell id="0" />
        <mxCell id="1" parent="0" />
        <mxCell id="VRnNremDBHeNMVHFMF0Y-1" value="&lt;font style=&quot;font-size: 12px;&quot;&gt;UI&lt;/font&gt;" style="shape=umlLifeline;perimeter=lifelinePerimeter;whiteSpace=wrap;html=1;container=0;dropTarget=0;collapsible=0;recursiveResize=0;outlineConnect=0;portConstraint=eastwest;newEdgeStyle={&quot;edgeStyle&quot;:&quot;elbowEdgeStyle&quot;,&quot;elbow&quot;:&quot;vertical&quot;,&quot;curved&quot;:0,&quot;rounded&quot;:0};fontSize=11;" parent="1" vertex="1">
          <mxGeometry x="248" y="110" width="100" height="410" as="geometry" />
        </mxCell>
        <mxCell id="VRnNremDBHeNMVHFMF0Y-2" value="" style="html=1;points=[];perimeter=orthogonalPerimeter;outlineConnect=0;targetShapes=umlLifeline;portConstraint=eastwest;newEdgeStyle={&quot;edgeStyle&quot;:&quot;elbowEdgeStyle&quot;,&quot;elbow&quot;:&quot;vertical&quot;,&quot;curved&quot;:0,&quot;rounded&quot;:0};fontSize=11;" parent="VRnNremDBHeNMVHFMF0Y-1" vertex="1">
          <mxGeometry x="45" y="60" width="10" height="300" as="geometry" />
        </mxCell>
        <mxCell id="VRnNremDBHeNMVHFMF0Y-3" value="" style="shape=umlDestroy;whiteSpace=wrap;html=1;strokeWidth=3;targetShapes=umlLifeline;fontSize=11;" parent="VRnNremDBHeNMVHFMF0Y-1" vertex="1">
          <mxGeometry x="40" y="390" width="20" height="20" as="geometry" />
        </mxCell>
        <mxCell id="VRnNremDBHeNMVHFMF0Y-4" value="Database" style="shape=umlLifeline;perimeter=lifelinePerimeter;whiteSpace=wrap;html=1;container=0;dropTarget=0;collapsible=0;recursiveResize=0;outlineConnect=0;portConstraint=eastwest;newEdgeStyle={&quot;edgeStyle&quot;:&quot;elbowEdgeStyle&quot;,&quot;elbow&quot;:&quot;vertical&quot;,&quot;curved&quot;:0,&quot;rounded&quot;:0};fontSize=12;" parent="1" vertex="1">
          <mxGeometry x="668" y="110" width="100" height="410" as="geometry" />
        </mxCell>
        <mxCell id="VRnNremDBHeNMVHFMF0Y-5" value="" style="html=1;points=[];perimeter=orthogonalPerimeter;outlineConnect=0;targetShapes=umlLifeline;portConstraint=eastwest;newEdgeStyle={&quot;edgeStyle&quot;:&quot;elbowEdgeStyle&quot;,&quot;elbow&quot;:&quot;vertical&quot;,&quot;curved&quot;:0,&quot;rounded&quot;:0};fontSize=11;" parent="VRnNremDBHeNMVHFMF0Y-4" vertex="1">
          <mxGeometry x="45" y="70" width="10" height="290" as="geometry" />
        </mxCell>
        <mxCell id="VRnNremDBHeNMVHFMF0Y-6" value="" style="shape=umlDestroy;whiteSpace=wrap;html=1;strokeWidth=3;targetShapes=umlLifeline;fontSize=11;" parent="VRnNremDBHeNMVHFMF0Y-4" vertex="1">
          <mxGeometry x="40" y="390" width="20" height="20" as="geometry" />
        </mxCell>
        <mxCell id="VRnNremDBHeNMVHFMF0Y-7" value="Material Details Not Saved" style="html=1;verticalAlign=bottom;endArrow=open;dashed=1;endSize=8;edgeStyle=elbowEdgeStyle;elbow=vertical;curved=0;rounded=0;fontSize=11;" parent="1" edge="1">
          <mxGeometry x="-0.0008" relative="1" as="geometry">
            <mxPoint x="518" y="410" as="targetPoint" />
            <Array as="points">
              <mxPoint x="568" y="410" />
              <mxPoint x="658" y="480" />
              <mxPoint x="638" y="470" />
              <mxPoint x="618" y="460" />
              <mxPoint x="598" y="450" />
              <mxPoint x="613" y="430" />
            </Array>
            <mxPoint as="offset" />
            <mxPoint x="708" y="410" as="sourcePoint" />
          </mxGeometry>
        </mxCell>
        <mxCell id="VRnNremDBHeNMVHFMF0Y-8" value="Material Details Saved Successfully" style="html=1;verticalAlign=bottom;endArrow=open;dashed=1;endSize=8;edgeStyle=elbowEdgeStyle;elbow=vertical;curved=0;rounded=0;fontSize=11;" parent="1" source="VRnNremDBHeNMVHFMF0Y-5" target="VRnNremDBHeNMVHFMF0Y-18" edge="1">
          <mxGeometry x="-0.206" relative="1" as="geometry">
            <mxPoint x="508" y="330" as="targetPoint" />
            <Array as="points">
              <mxPoint x="568" y="330" />
              <mxPoint x="608" y="370" />
              <mxPoint x="588" y="360" />
              <mxPoint x="598" y="360" />
            </Array>
            <mxPoint x="683" y="330" as="sourcePoint" />
            <mxPoint as="offset" />
          </mxGeometry>
        </mxCell>
        <mxCell id="VRnNremDBHeNMVHFMF0Y-9" value="" style="endArrow=none;dashed=1;html=1;rounded=0;fontSize=11;" parent="1" edge="1">
          <mxGeometry width="50" height="50" relative="1" as="geometry">
            <mxPoint x="118" y="520" as="sourcePoint" />
            <mxPoint x="120" y="170" as="targetPoint" />
          </mxGeometry>
        </mxCell>
        <mxCell id="VRnNremDBHeNMVHFMF0Y-10" value="Alternative" style="shape=umlFrame;whiteSpace=wrap;html=1;pointerEvents=0;fontSize=11;" parent="1" vertex="1">
          <mxGeometry x="68" y="309" width="680" height="140" as="geometry" />
        </mxCell>
        <mxCell id="VRnNremDBHeNMVHFMF0Y-11" value="" style="line;strokeWidth=1;fillColor=none;align=left;verticalAlign=middle;spacingTop=-1;spacingLeft=3;spacingRight=3;rotatable=0;labelPosition=right;points=[];portConstraint=eastwest;strokeColor=inherit;fontSize=11;" parent="1" vertex="1">
          <mxGeometry x="64" y="375" width="684" height="8" as="geometry" />
        </mxCell>
        <mxCell id="VRnNremDBHeNMVHFMF0Y-12" value="Display Material Details&lt;br style=&quot;font-size: 11px;&quot;&gt;Saved Successfully" style="html=1;verticalAlign=bottom;endArrow=block;edgeStyle=elbowEdgeStyle;elbow=vertical;curved=0;rounded=0;dashed=1;fontSize=11;" parent="1" edge="1">
          <mxGeometry y="-5" width="80" relative="1" as="geometry">
            <mxPoint x="298" y="365" as="sourcePoint" />
            <mxPoint x="118" y="365" as="targetPoint" />
            <Array as="points">
              <mxPoint x="223" y="365" />
            </Array>
            <mxPoint as="offset" />
          </mxGeometry>
        </mxCell>
        <mxCell id="VRnNremDBHeNMVHFMF0Y-13" value="Display Error Message" style="html=1;verticalAlign=bottom;endArrow=block;edgeStyle=elbowEdgeStyle;elbow=vertical;curved=0;rounded=0;dashed=1;fontSize=11;" parent="1" edge="1">
          <mxGeometry width="80" relative="1" as="geometry">
            <mxPoint x="288" y="440" as="sourcePoint" />
            <mxPoint x="118" y="440" as="targetPoint" />
            <mxPoint as="offset" />
          </mxGeometry>
        </mxCell>
        <mxCell id="VRnNremDBHeNMVHFMF0Y-14" value="&lt;b style=&quot;font-size: 11px;&quot;&gt;[if&amp;nbsp;&lt;/b&gt;&lt;span style=&quot;font-size: 11px;&quot;&gt;&lt;b style=&quot;font-size: 11px;&quot;&gt;Material&lt;/b&gt;&lt;/span&gt;&lt;b style=&quot;font-size: 11px;&quot;&gt;&amp;nbsp;Details Added]&lt;/b&gt;" style="text;html=1;strokeColor=none;fillColor=none;align=left;verticalAlign=middle;whiteSpace=wrap;rounded=0;fontSize=11;" parent="1" vertex="1">
          <mxGeometry x="136" y="308.75" width="154" height="22.5" as="geometry" />
        </mxCell>
        <mxCell id="VRnNremDBHeNMVHFMF0Y-15" value="&lt;font style=&quot;font-size: 11px;&quot;&gt;&lt;b style=&quot;font-size: 11px;&quot;&gt;[else]&lt;/b&gt;&lt;/font&gt;" style="text;html=1;strokeColor=none;fillColor=none;align=left;verticalAlign=middle;whiteSpace=wrap;rounded=0;fontSize=11;" parent="1" vertex="1">
          <mxGeometry x="78" y="383" width="80" height="10" as="geometry" />
        </mxCell>
        <mxCell id="VRnNremDBHeNMVHFMF0Y-16" value="&lt;font style=&quot;font-size: 12px;&quot;&gt;Resource Manager&lt;/font&gt;" style="shape=umlActor;verticalLabelPosition=bottom;verticalAlign=top;html=1;outlineConnect=0;fontSize=11;" parent="1" vertex="1">
          <mxGeometry x="110" y="100" width="18" height="40" as="geometry" />
        </mxCell>
        <mxCell id="VRnNremDBHeNMVHFMF0Y-17" value="&lt;font style=&quot;font-size: 12px;&quot;&gt;System&lt;/font&gt;" style="shape=umlLifeline;perimeter=lifelinePerimeter;whiteSpace=wrap;html=1;container=0;dropTarget=0;collapsible=0;recursiveResize=0;outlineConnect=0;portConstraint=eastwest;newEdgeStyle={&quot;edgeStyle&quot;:&quot;elbowEdgeStyle&quot;,&quot;elbow&quot;:&quot;vertical&quot;,&quot;curved&quot;:0,&quot;rounded&quot;:0};size=40;fontSize=11;" parent="1" vertex="1">
          <mxGeometry x="444" y="110" width="130" height="410" as="geometry" />
        </mxCell>
        <mxCell id="VRnNremDBHeNMVHFMF0Y-18" value="" style="html=1;points=[];perimeter=orthogonalPerimeter;outlineConnect=0;targetShapes=umlLifeline;portConstraint=eastwest;newEdgeStyle={&quot;edgeStyle&quot;:&quot;elbowEdgeStyle&quot;,&quot;elbow&quot;:&quot;vertical&quot;,&quot;curved&quot;:0,&quot;rounded&quot;:0};fontSize=11;" parent="VRnNremDBHeNMVHFMF0Y-17" vertex="1">
          <mxGeometry x="60" y="70" width="10" height="290" as="geometry" />
        </mxCell>
        <mxCell id="VRnNremDBHeNMVHFMF0Y-19" value="" style="shape=umlDestroy;whiteSpace=wrap;html=1;strokeWidth=3;targetShapes=umlLifeline;fontSize=11;" parent="VRnNremDBHeNMVHFMF0Y-17" vertex="1">
          <mxGeometry x="55" y="390" width="20" height="20" as="geometry" />
        </mxCell>
        <mxCell id="VRnNremDBHeNMVHFMF0Y-20" value="Saved Successfully" style="html=1;verticalAlign=bottom;endArrow=open;dashed=1;endSize=8;edgeStyle=elbowEdgeStyle;elbow=vertical;curved=0;rounded=0;fontSize=11;" parent="1" edge="1">
          <mxGeometry relative="1" as="geometry">
            <mxPoint x="298" y="350" as="targetPoint" />
            <Array as="points">
              <mxPoint x="363" y="350" />
              <mxPoint x="403" y="390" />
              <mxPoint x="383" y="380" />
              <mxPoint x="393" y="380" />
            </Array>
            <mxPoint x="498" y="350" as="sourcePoint" />
          </mxGeometry>
        </mxCell>
        <mxCell id="VRnNremDBHeNMVHFMF0Y-21" value="&amp;nbsp;Not Saved" style="html=1;verticalAlign=bottom;endArrow=open;dashed=1;endSize=8;edgeStyle=elbowEdgeStyle;elbow=vertical;curved=0;rounded=0;fontSize=11;" parent="1" edge="1">
          <mxGeometry relative="1" as="geometry">
            <mxPoint x="298" y="420" as="targetPoint" />
            <Array as="points">
              <mxPoint x="363" y="420" />
              <mxPoint x="403" y="460" />
              <mxPoint x="383" y="450" />
              <mxPoint x="393" y="450" />
            </Array>
            <mxPoint x="498" y="420" as="sourcePoint" />
          </mxGeometry>
        </mxCell>
        <mxCell id="VRnNremDBHeNMVHFMF0Y-25" value="Add Matrial Details &amp;amp; Click Save" style="html=1;verticalAlign=bottom;endArrow=block;edgeStyle=elbowEdgeStyle;elbow=vertical;curved=0;rounded=0;fontSize=11;" parent="1" edge="1">
          <mxGeometry width="80" relative="1" as="geometry">
            <mxPoint x="120" y="220" as="sourcePoint" />
            <mxPoint x="296" y="220" as="targetPoint" />
          </mxGeometry>
        </mxCell>
        <mxCell id="VRnNremDBHeNMVHFMF0Y-26" value="Add Material Details" style="html=1;verticalAlign=bottom;endArrow=block;edgeStyle=elbowEdgeStyle;elbow=vertical;curved=0;rounded=0;fontSize=11;" parent="1" edge="1">
          <mxGeometry width="80" relative="1" as="geometry">
            <mxPoint x="303" y="250" as="sourcePoint" />
            <mxPoint x="503" y="250" as="targetPoint" />
          </mxGeometry>
        </mxCell>
        <mxCell id="VRnNremDBHeNMVHFMF0Y-27" value="Saved Material Details&amp;nbsp;" style="html=1;verticalAlign=bottom;endArrow=block;edgeStyle=elbowEdgeStyle;elbow=vertical;curved=0;rounded=0;fontSize=11;" parent="1" edge="1">
          <mxGeometry width="80" relative="1" as="geometry">
            <mxPoint x="510" y="280" as="sourcePoint" />
            <mxPoint x="710" y="280" as="targetPoint" />
            <mxPoint as="offset" />
          </mxGeometry>
        </mxCell>
        <mxCell id="VRnNremDBHeNMVHFMF0Y-28" value="&lt;h2&gt;&lt;font style=&quot;font-size: 16px;&quot;&gt;Sequence Diagram - Resource Manager Add Materials to the System&amp;nbsp;&lt;/font&gt;&lt;/h2&gt;" style="text;whiteSpace=wrap;html=1;" parent="1" vertex="1">
          <mxGeometry x="158" y="20" width="549" height="40" as="geometry" />
        </mxCell>
        <mxCell id="VRnNremDBHeNMVHFMF0Y-29" value="UI" style="shape=umlLifeline;perimeter=lifelinePerimeter;whiteSpace=wrap;html=1;container=0;dropTarget=0;collapsible=0;recursiveResize=0;outlineConnect=0;portConstraint=eastwest;newEdgeStyle={&quot;edgeStyle&quot;:&quot;elbowEdgeStyle&quot;,&quot;elbow&quot;:&quot;vertical&quot;,&quot;curved&quot;:0,&quot;rounded&quot;:0};fontSize=12;" parent="1" vertex="1">
          <mxGeometry x="237" y="600" width="100" height="470" as="geometry" />
        </mxCell>
        <mxCell id="VRnNremDBHeNMVHFMF0Y-30" value="" style="html=1;points=[];perimeter=orthogonalPerimeter;outlineConnect=0;targetShapes=umlLifeline;portConstraint=eastwest;newEdgeStyle={&quot;edgeStyle&quot;:&quot;elbowEdgeStyle&quot;,&quot;elbow&quot;:&quot;vertical&quot;,&quot;curved&quot;:0,&quot;rounded&quot;:0};fontSize=11;" parent="VRnNremDBHeNMVHFMF0Y-29" vertex="1">
          <mxGeometry x="45" y="60" width="10" height="360" as="geometry" />
        </mxCell>
        <mxCell id="VRnNremDBHeNMVHFMF0Y-31" value="" style="shape=umlDestroy;whiteSpace=wrap;html=1;strokeWidth=3;targetShapes=umlLifeline;fontSize=11;" parent="VRnNremDBHeNMVHFMF0Y-29" vertex="1">
          <mxGeometry x="40" y="450" width="20" height="20" as="geometry" />
        </mxCell>
        <mxCell id="VRnNremDBHeNMVHFMF0Y-32" value="Database" style="shape=umlLifeline;perimeter=lifelinePerimeter;whiteSpace=wrap;html=1;container=0;dropTarget=0;collapsible=0;recursiveResize=0;outlineConnect=0;portConstraint=eastwest;newEdgeStyle={&quot;edgeStyle&quot;:&quot;elbowEdgeStyle&quot;,&quot;elbow&quot;:&quot;vertical&quot;,&quot;curved&quot;:0,&quot;rounded&quot;:0};fontSize=12;" parent="1" vertex="1">
          <mxGeometry x="655" y="600" width="100" height="470" as="geometry" />
        </mxCell>
        <mxCell id="VRnNremDBHeNMVHFMF0Y-33" value="" style="html=1;points=[];perimeter=orthogonalPerimeter;outlineConnect=0;targetShapes=umlLifeline;portConstraint=eastwest;newEdgeStyle={&quot;edgeStyle&quot;:&quot;elbowEdgeStyle&quot;,&quot;elbow&quot;:&quot;vertical&quot;,&quot;curved&quot;:0,&quot;rounded&quot;:0};fontSize=11;" parent="VRnNremDBHeNMVHFMF0Y-32" vertex="1">
          <mxGeometry x="47" y="90" width="10" height="340" as="geometry" />
        </mxCell>
        <mxCell id="VRnNremDBHeNMVHFMF0Y-34" value="" style="shape=umlDestroy;whiteSpace=wrap;html=1;strokeWidth=3;targetShapes=umlLifeline;fontSize=11;" parent="VRnNremDBHeNMVHFMF0Y-32" vertex="1">
          <mxGeometry x="40" y="450" width="20" height="20" as="geometry" />
        </mxCell>
        <mxCell id="VRnNremDBHeNMVHFMF0Y-35" value="" style="endArrow=none;dashed=1;html=1;rounded=0;fontSize=11;" parent="1" target="VRnNremDBHeNMVHFMF0Y-36" edge="1">
          <mxGeometry width="50" height="50" relative="1" as="geometry">
            <mxPoint x="106" y="1060" as="sourcePoint" />
            <mxPoint x="107" y="690" as="targetPoint" />
          </mxGeometry>
        </mxCell>
        <mxCell id="VRnNremDBHeNMVHFMF0Y-36" value="Resource Manager" style="shape=umlActor;verticalLabelPosition=bottom;verticalAlign=top;html=1;outlineConnect=0;fontSize=12;" parent="1" vertex="1">
          <mxGeometry x="97" y="580" width="20" height="40" as="geometry" />
        </mxCell>
        <mxCell id="VRnNremDBHeNMVHFMF0Y-37" value="System" style="shape=umlLifeline;perimeter=lifelinePerimeter;whiteSpace=wrap;html=1;container=0;dropTarget=0;collapsible=0;recursiveResize=0;outlineConnect=0;portConstraint=eastwest;newEdgeStyle={&quot;edgeStyle&quot;:&quot;elbowEdgeStyle&quot;,&quot;elbow&quot;:&quot;vertical&quot;,&quot;curved&quot;:0,&quot;rounded&quot;:0};size=40;fontSize=12;" parent="1" vertex="1">
          <mxGeometry x="433" y="600" width="130" height="470" as="geometry" />
        </mxCell>
        <mxCell id="VRnNremDBHeNMVHFMF0Y-38" value="" style="html=1;points=[];perimeter=orthogonalPerimeter;outlineConnect=0;targetShapes=umlLifeline;portConstraint=eastwest;newEdgeStyle={&quot;edgeStyle&quot;:&quot;elbowEdgeStyle&quot;,&quot;elbow&quot;:&quot;vertical&quot;,&quot;curved&quot;:0,&quot;rounded&quot;:0};fontSize=11;" parent="VRnNremDBHeNMVHFMF0Y-37" vertex="1">
          <mxGeometry x="60" y="70" width="10" height="350" as="geometry" />
        </mxCell>
        <mxCell id="VRnNremDBHeNMVHFMF0Y-39" value="" style="shape=umlDestroy;whiteSpace=wrap;html=1;strokeWidth=3;targetShapes=umlLifeline;fontSize=11;" parent="VRnNremDBHeNMVHFMF0Y-37" vertex="1">
          <mxGeometry x="55" y="450" width="20" height="20" as="geometry" />
        </mxCell>
        <mxCell id="VRnNremDBHeNMVHFMF0Y-57" value="Entered Details Not Updated" style="html=1;verticalAlign=bottom;endArrow=open;dashed=1;endSize=8;edgeStyle=elbowEdgeStyle;elbow=vertical;curved=0;rounded=0;fontSize=11;" parent="1" edge="1">
          <mxGeometry x="-0.0008" relative="1" as="geometry">
            <mxPoint x="507" y="940" as="targetPoint" />
            <Array as="points">
              <mxPoint x="557" y="940" />
              <mxPoint x="647" y="1010" />
              <mxPoint x="627" y="1000" />
              <mxPoint x="607" y="990" />
              <mxPoint x="587" y="980" />
              <mxPoint x="602" y="960" />
            </Array>
            <mxPoint as="offset" />
            <mxPoint x="697" y="940" as="sourcePoint" />
          </mxGeometry>
        </mxCell>
        <mxCell id="VRnNremDBHeNMVHFMF0Y-58" value="" style="html=1;verticalAlign=bottom;endArrow=open;dashed=1;endSize=8;edgeStyle=elbowEdgeStyle;elbow=vertical;curved=0;rounded=0;fontSize=11;" parent="1" edge="1">
          <mxGeometry x="-0.206" relative="1" as="geometry">
            <mxPoint x="498" y="872.5" as="targetPoint" />
            <Array as="points">
              <mxPoint x="552" y="872.5" />
              <mxPoint x="592" y="912.5" />
              <mxPoint x="572" y="902.5" />
              <mxPoint x="582" y="902.5" />
            </Array>
            <mxPoint x="697" y="872.5" as="sourcePoint" />
            <mxPoint as="offset" />
          </mxGeometry>
        </mxCell>
        <mxCell id="VRnNremDBHeNMVHFMF0Y-59" value="Entered Details Updated Successfully" style="edgeLabel;html=1;align=center;verticalAlign=middle;resizable=0;points=[];fontSize=11;" parent="VRnNremDBHeNMVHFMF0Y-58" vertex="1" connectable="0">
          <mxGeometry x="-0.0814" y="-3" relative="1" as="geometry">
            <mxPoint y="-8" as="offset" />
          </mxGeometry>
        </mxCell>
        <mxCell id="VRnNremDBHeNMVHFMF0Y-60" value="Alternative" style="shape=umlFrame;whiteSpace=wrap;html=1;pointerEvents=0;fontSize=11;" parent="1" vertex="1">
          <mxGeometry x="61" y="850" width="690" height="120" as="geometry" />
        </mxCell>
        <mxCell id="VRnNremDBHeNMVHFMF0Y-61" value="" style="line;strokeWidth=1;fillColor=none;align=left;verticalAlign=middle;spacingTop=-1;spacingLeft=3;spacingRight=3;rotatable=0;labelPosition=right;points=[];portConstraint=eastwest;strokeColor=inherit;fontSize=11;" parent="1" vertex="1">
          <mxGeometry x="61" y="911.25" width="694" height="8" as="geometry" />
        </mxCell>
        <mxCell id="VRnNremDBHeNMVHFMF0Y-62" value="Display Materials&lt;br style=&quot;font-size: 11px;&quot;&gt;Details Updated Successfully&amp;nbsp;" style="html=1;verticalAlign=bottom;endArrow=block;edgeStyle=elbowEdgeStyle;elbow=vertical;curved=0;rounded=0;dashed=1;fontSize=11;" parent="1" edge="1">
          <mxGeometry y="-5" width="80" relative="1" as="geometry">
            <mxPoint x="282" y="901.25" as="sourcePoint" />
            <mxPoint x="102" y="901.25" as="targetPoint" />
            <Array as="points">
              <mxPoint x="207" y="901.25" />
            </Array>
            <mxPoint as="offset" />
          </mxGeometry>
        </mxCell>
        <mxCell id="VRnNremDBHeNMVHFMF0Y-63" value="Display Error Message&amp;nbsp;" style="html=1;verticalAlign=bottom;endArrow=block;edgeStyle=elbowEdgeStyle;elbow=vertical;curved=0;rounded=0;dashed=1;fontSize=11;" parent="1" edge="1">
          <mxGeometry width="80" relative="1" as="geometry">
            <mxPoint x="276" y="955.25" as="sourcePoint" />
            <mxPoint x="106" y="955.25" as="targetPoint" />
            <mxPoint as="offset" />
          </mxGeometry>
        </mxCell>
        <mxCell id="VRnNremDBHeNMVHFMF0Y-64" value="&lt;span style=&quot;font-size: 11px;&quot;&gt;&lt;b style=&quot;font-size: 11px;&quot;&gt;[if Material Details Updated ]&lt;/b&gt;&lt;/span&gt;" style="text;html=1;strokeColor=none;fillColor=none;align=left;verticalAlign=middle;whiteSpace=wrap;rounded=0;fontSize=11;" parent="1" vertex="1">
          <mxGeometry x="121" y="850" width="169" height="22.5" as="geometry" />
        </mxCell>
        <mxCell id="VRnNremDBHeNMVHFMF0Y-65" value="&lt;font style=&quot;font-size: 11px;&quot;&gt;&lt;b style=&quot;font-size: 11px;&quot;&gt;[else]&lt;/b&gt;&lt;/font&gt;" style="text;html=1;strokeColor=none;fillColor=none;align=left;verticalAlign=middle;whiteSpace=wrap;rounded=0;fontSize=11;" parent="1" vertex="1">
          <mxGeometry x="62" y="919.25" width="80" height="10" as="geometry" />
        </mxCell>
        <mxCell id="VRnNremDBHeNMVHFMF0Y-66" value="Changed Necessary Details&amp;nbsp;" style="html=1;verticalAlign=bottom;endArrow=block;edgeStyle=elbowEdgeStyle;elbow=vertical;curved=0;rounded=0;fontSize=11;" parent="1" edge="1">
          <mxGeometry width="80" relative="1" as="geometry">
            <mxPoint x="109" y="710" as="sourcePoint" />
            <mxPoint x="287" y="710" as="targetPoint" />
            <Array as="points">
              <mxPoint x="108" y="710" />
            </Array>
          </mxGeometry>
        </mxCell>
        <mxCell id="VRnNremDBHeNMVHFMF0Y-67" value="Changed Details&amp;nbsp;" style="html=1;verticalAlign=bottom;endArrow=block;edgeStyle=elbowEdgeStyle;elbow=vertical;curved=0;rounded=0;fontSize=11;" parent="1" edge="1">
          <mxGeometry width="80" relative="1" as="geometry">
            <mxPoint x="289.75" y="760" as="sourcePoint" />
            <mxPoint x="491.25" y="760" as="targetPoint" />
            <Array as="points" />
          </mxGeometry>
        </mxCell>
        <mxCell id="VRnNremDBHeNMVHFMF0Y-68" value="Update Entered Details&amp;nbsp;" style="html=1;verticalAlign=bottom;endArrow=block;edgeStyle=elbowEdgeStyle;elbow=vertical;curved=0;rounded=0;fontSize=11;" parent="1" edge="1">
          <mxGeometry width="80" relative="1" as="geometry">
            <mxPoint x="507" y="800" as="sourcePoint" />
            <mxPoint x="707" y="800" as="targetPoint" />
            <Array as="points" />
          </mxGeometry>
        </mxCell>
        <mxCell id="VRnNremDBHeNMVHFMF0Y-69" value="" style="html=1;verticalAlign=bottom;endArrow=open;dashed=1;endSize=8;edgeStyle=elbowEdgeStyle;elbow=vertical;curved=0;rounded=0;fontSize=11;" parent="1" edge="1">
          <mxGeometry x="-0.206" relative="1" as="geometry">
            <mxPoint x="295" y="882.5" as="targetPoint" />
            <Array as="points">
              <mxPoint x="349" y="882.5" />
              <mxPoint x="389" y="922.5" />
              <mxPoint x="369" y="912.5" />
              <mxPoint x="379" y="912.5" />
            </Array>
            <mxPoint x="494" y="882.5" as="sourcePoint" />
            <mxPoint as="offset" />
          </mxGeometry>
        </mxCell>
        <mxCell id="VRnNremDBHeNMVHFMF0Y-70" value="Entered Details Update Successfully" style="edgeLabel;html=1;align=center;verticalAlign=middle;resizable=0;points=[];fontSize=11;" parent="VRnNremDBHeNMVHFMF0Y-69" vertex="1" connectable="0">
          <mxGeometry x="-0.0814" y="-3" relative="1" as="geometry">
            <mxPoint x="-13" y="-7" as="offset" />
          </mxGeometry>
        </mxCell>
        <mxCell id="VRnNremDBHeNMVHFMF0Y-71" value="Entered Details Not Updated" style="html=1;verticalAlign=bottom;endArrow=open;dashed=1;endSize=8;edgeStyle=elbowEdgeStyle;elbow=vertical;curved=0;rounded=0;fontSize=11;" parent="1" edge="1">
          <mxGeometry x="-0.0008" relative="1" as="geometry">
            <mxPoint x="297" y="950" as="targetPoint" />
            <Array as="points">
              <mxPoint x="349.5" y="950" />
              <mxPoint x="439.5" y="1020" />
              <mxPoint x="419.5" y="1010" />
              <mxPoint x="399.5" y="1000" />
              <mxPoint x="379.5" y="990" />
              <mxPoint x="394.5" y="970" />
            </Array>
            <mxPoint as="offset" />
            <mxPoint x="489.5" y="950" as="sourcePoint" />
          </mxGeometry>
        </mxCell>
        <mxCell id="ye6iTWmXx9Zv13L8eZRG-1" value="&lt;h2 style=&quot;&quot;&gt;&lt;font style=&quot;font-size: 16px;&quot;&gt;Sequence Diagram - Resource Manager Update Existing Materials in the System&amp;nbsp;&lt;/font&gt;&lt;/h2&gt;" style="text;whiteSpace=wrap;html=1;fontSize=12;" parent="1" vertex="1">
          <mxGeometry x="110" y="530" width="627.5" height="40" as="geometry" />
        </mxCell>
      </root>
    </mxGraphModel>
  </diagram>
  <diagram name="2" id="ytgnwijj6vHPfo-OVflA">
    <mxGraphModel dx="1032" dy="580" grid="1" gridSize="10" guides="1" tooltips="1" connect="1" arrows="1" fold="1" page="1" pageScale="1" pageWidth="827" pageHeight="1169" math="0" shadow="0">
      <root>
        <mxCell id="9OIzMS0RnzyLxtHH9ZPI-0" />
        <mxCell id="9OIzMS0RnzyLxtHH9ZPI-1" parent="9OIzMS0RnzyLxtHH9ZPI-0" />
        <mxCell id="9OIzMS0RnzyLxtHH9ZPI-2" value="UI" style="shape=umlLifeline;perimeter=lifelinePerimeter;whiteSpace=wrap;html=1;container=0;dropTarget=0;collapsible=0;recursiveResize=0;outlineConnect=0;portConstraint=eastwest;newEdgeStyle={&quot;edgeStyle&quot;:&quot;elbowEdgeStyle&quot;,&quot;elbow&quot;:&quot;vertical&quot;,&quot;curved&quot;:0,&quot;rounded&quot;:0};fontSize=12;" parent="9OIzMS0RnzyLxtHH9ZPI-1" vertex="1">
          <mxGeometry x="248" y="110" width="100" height="410" as="geometry" />
        </mxCell>
        <mxCell id="9OIzMS0RnzyLxtHH9ZPI-3" value="" style="html=1;points=[];perimeter=orthogonalPerimeter;outlineConnect=0;targetShapes=umlLifeline;portConstraint=eastwest;newEdgeStyle={&quot;edgeStyle&quot;:&quot;elbowEdgeStyle&quot;,&quot;elbow&quot;:&quot;vertical&quot;,&quot;curved&quot;:0,&quot;rounded&quot;:0};fontSize=11;" parent="9OIzMS0RnzyLxtHH9ZPI-2" vertex="1">
          <mxGeometry x="45" y="60" width="10" height="300" as="geometry" />
        </mxCell>
        <mxCell id="9OIzMS0RnzyLxtHH9ZPI-4" value="" style="shape=umlDestroy;whiteSpace=wrap;html=1;strokeWidth=3;targetShapes=umlLifeline;fontSize=11;" parent="9OIzMS0RnzyLxtHH9ZPI-2" vertex="1">
          <mxGeometry x="40" y="390" width="20" height="20" as="geometry" />
        </mxCell>
        <mxCell id="9OIzMS0RnzyLxtHH9ZPI-5" value="Database" style="shape=umlLifeline;perimeter=lifelinePerimeter;whiteSpace=wrap;html=1;container=0;dropTarget=0;collapsible=0;recursiveResize=0;outlineConnect=0;portConstraint=eastwest;newEdgeStyle={&quot;edgeStyle&quot;:&quot;elbowEdgeStyle&quot;,&quot;elbow&quot;:&quot;vertical&quot;,&quot;curved&quot;:0,&quot;rounded&quot;:0};fontSize=12;" parent="9OIzMS0RnzyLxtHH9ZPI-1" vertex="1">
          <mxGeometry x="668" y="110" width="100" height="410" as="geometry" />
        </mxCell>
        <mxCell id="9OIzMS0RnzyLxtHH9ZPI-6" value="" style="html=1;points=[];perimeter=orthogonalPerimeter;outlineConnect=0;targetShapes=umlLifeline;portConstraint=eastwest;newEdgeStyle={&quot;edgeStyle&quot;:&quot;elbowEdgeStyle&quot;,&quot;elbow&quot;:&quot;vertical&quot;,&quot;curved&quot;:0,&quot;rounded&quot;:0};fontSize=11;" parent="9OIzMS0RnzyLxtHH9ZPI-5" vertex="1">
          <mxGeometry x="45" y="70" width="10" height="290" as="geometry" />
        </mxCell>
        <mxCell id="9OIzMS0RnzyLxtHH9ZPI-7" value="" style="shape=umlDestroy;whiteSpace=wrap;html=1;strokeWidth=3;targetShapes=umlLifeline;fontSize=11;" parent="9OIzMS0RnzyLxtHH9ZPI-5" vertex="1">
          <mxGeometry x="40" y="390" width="20" height="20" as="geometry" />
        </mxCell>
        <mxCell id="9OIzMS0RnzyLxtHH9ZPI-8" value="Employee&amp;nbsp;Details Not Saved&amp;nbsp;" style="html=1;verticalAlign=bottom;endArrow=open;dashed=1;endSize=8;edgeStyle=elbowEdgeStyle;elbow=vertical;curved=0;rounded=0;fontSize=11;" parent="9OIzMS0RnzyLxtHH9ZPI-1" edge="1">
          <mxGeometry x="-0.0008" relative="1" as="geometry">
            <mxPoint x="518" y="410" as="targetPoint" />
            <Array as="points">
              <mxPoint x="568" y="410" />
              <mxPoint x="658" y="480" />
              <mxPoint x="638" y="470" />
              <mxPoint x="618" y="460" />
              <mxPoint x="598" y="450" />
              <mxPoint x="613" y="430" />
            </Array>
            <mxPoint as="offset" />
            <mxPoint x="708" y="410" as="sourcePoint" />
          </mxGeometry>
        </mxCell>
        <mxCell id="9OIzMS0RnzyLxtHH9ZPI-9" value="Employee Details Saved Successfully" style="html=1;verticalAlign=bottom;endArrow=open;dashed=1;endSize=8;edgeStyle=elbowEdgeStyle;elbow=vertical;curved=0;rounded=0;fontSize=11;" parent="9OIzMS0RnzyLxtHH9ZPI-1" source="9OIzMS0RnzyLxtHH9ZPI-6" target="9OIzMS0RnzyLxtHH9ZPI-19" edge="1">
          <mxGeometry x="-0.0653" relative="1" as="geometry">
            <mxPoint x="508" y="330" as="targetPoint" />
            <Array as="points">
              <mxPoint x="568" y="330" />
              <mxPoint x="608" y="370" />
              <mxPoint x="588" y="360" />
              <mxPoint x="598" y="360" />
            </Array>
            <mxPoint x="683" y="330" as="sourcePoint" />
            <mxPoint as="offset" />
          </mxGeometry>
        </mxCell>
        <mxCell id="9OIzMS0RnzyLxtHH9ZPI-10" value="" style="endArrow=none;dashed=1;html=1;rounded=0;fontSize=11;" parent="9OIzMS0RnzyLxtHH9ZPI-1" edge="1">
          <mxGeometry width="50" height="50" relative="1" as="geometry">
            <mxPoint x="118" y="520" as="sourcePoint" />
            <mxPoint x="120" y="170" as="targetPoint" />
          </mxGeometry>
        </mxCell>
        <mxCell id="9OIzMS0RnzyLxtHH9ZPI-11" value="Alternative" style="shape=umlFrame;whiteSpace=wrap;html=1;pointerEvents=0;fontSize=11;" parent="9OIzMS0RnzyLxtHH9ZPI-1" vertex="1">
          <mxGeometry x="68" y="309" width="680" height="140" as="geometry" />
        </mxCell>
        <mxCell id="9OIzMS0RnzyLxtHH9ZPI-12" value="" style="line;strokeWidth=1;fillColor=none;align=left;verticalAlign=middle;spacingTop=-1;spacingLeft=3;spacingRight=3;rotatable=0;labelPosition=right;points=[];portConstraint=eastwest;strokeColor=inherit;fontSize=11;" parent="9OIzMS0RnzyLxtHH9ZPI-1" vertex="1">
          <mxGeometry x="64" y="375" width="684" height="8" as="geometry" />
        </mxCell>
        <mxCell id="9OIzMS0RnzyLxtHH9ZPI-13" value="Display Employee&amp;nbsp;Details&lt;br style=&quot;font-size: 11px;&quot;&gt;Saved Successfully" style="html=1;verticalAlign=bottom;endArrow=block;edgeStyle=elbowEdgeStyle;elbow=vertical;curved=0;rounded=0;dashed=1;fontSize=11;" parent="9OIzMS0RnzyLxtHH9ZPI-1" edge="1">
          <mxGeometry y="-5" width="80" relative="1" as="geometry">
            <mxPoint x="298" y="365" as="sourcePoint" />
            <mxPoint x="118" y="365" as="targetPoint" />
            <Array as="points">
              <mxPoint x="223" y="365" />
            </Array>
            <mxPoint as="offset" />
          </mxGeometry>
        </mxCell>
        <mxCell id="9OIzMS0RnzyLxtHH9ZPI-14" value="Display Error Message" style="html=1;verticalAlign=bottom;endArrow=block;edgeStyle=elbowEdgeStyle;elbow=vertical;curved=0;rounded=0;dashed=1;fontSize=11;" parent="9OIzMS0RnzyLxtHH9ZPI-1" edge="1">
          <mxGeometry width="80" relative="1" as="geometry">
            <mxPoint x="288" y="440" as="sourcePoint" />
            <mxPoint x="118" y="440" as="targetPoint" />
            <mxPoint as="offset" />
          </mxGeometry>
        </mxCell>
        <mxCell id="9OIzMS0RnzyLxtHH9ZPI-15" value="&lt;font style=&quot;font-size: 11px;&quot;&gt;&lt;b style=&quot;font-size: 11px;&quot;&gt;[if&amp;nbsp;&lt;/b&gt;Employee&lt;b style=&quot;font-size: 11px;&quot;&gt;&amp;nbsp;Details Added]&lt;/b&gt;&lt;/font&gt;" style="text;html=1;strokeColor=none;fillColor=none;align=left;verticalAlign=middle;whiteSpace=wrap;rounded=0;fontSize=11;" parent="9OIzMS0RnzyLxtHH9ZPI-1" vertex="1">
          <mxGeometry x="136" y="308.75" width="164" height="22.5" as="geometry" />
        </mxCell>
        <mxCell id="9OIzMS0RnzyLxtHH9ZPI-16" value="&lt;font style=&quot;font-size: 11px;&quot;&gt;&lt;b style=&quot;font-size: 11px;&quot;&gt;[else]&lt;/b&gt;&lt;/font&gt;" style="text;html=1;strokeColor=none;fillColor=none;align=left;verticalAlign=middle;whiteSpace=wrap;rounded=0;fontSize=11;" parent="9OIzMS0RnzyLxtHH9ZPI-1" vertex="1">
          <mxGeometry x="78" y="383" width="80" height="10" as="geometry" />
        </mxCell>
        <mxCell id="9OIzMS0RnzyLxtHH9ZPI-17" value="Resource Manager" style="shape=umlActor;verticalLabelPosition=bottom;verticalAlign=top;html=1;outlineConnect=0;fontSize=12;" parent="9OIzMS0RnzyLxtHH9ZPI-1" vertex="1">
          <mxGeometry x="110" y="100" width="18" height="40" as="geometry" />
        </mxCell>
        <mxCell id="9OIzMS0RnzyLxtHH9ZPI-18" value="System" style="shape=umlLifeline;perimeter=lifelinePerimeter;whiteSpace=wrap;html=1;container=0;dropTarget=0;collapsible=0;recursiveResize=0;outlineConnect=0;portConstraint=eastwest;newEdgeStyle={&quot;edgeStyle&quot;:&quot;elbowEdgeStyle&quot;,&quot;elbow&quot;:&quot;vertical&quot;,&quot;curved&quot;:0,&quot;rounded&quot;:0};size=40;fontSize=12;" parent="9OIzMS0RnzyLxtHH9ZPI-1" vertex="1">
          <mxGeometry x="444" y="110" width="130" height="410" as="geometry" />
        </mxCell>
        <mxCell id="9OIzMS0RnzyLxtHH9ZPI-19" value="" style="html=1;points=[];perimeter=orthogonalPerimeter;outlineConnect=0;targetShapes=umlLifeline;portConstraint=eastwest;newEdgeStyle={&quot;edgeStyle&quot;:&quot;elbowEdgeStyle&quot;,&quot;elbow&quot;:&quot;vertical&quot;,&quot;curved&quot;:0,&quot;rounded&quot;:0};fontSize=11;" parent="9OIzMS0RnzyLxtHH9ZPI-18" vertex="1">
          <mxGeometry x="60" y="70" width="10" height="290" as="geometry" />
        </mxCell>
        <mxCell id="9OIzMS0RnzyLxtHH9ZPI-20" value="" style="shape=umlDestroy;whiteSpace=wrap;html=1;strokeWidth=3;targetShapes=umlLifeline;fontSize=11;" parent="9OIzMS0RnzyLxtHH9ZPI-18" vertex="1">
          <mxGeometry x="55" y="390" width="20" height="20" as="geometry" />
        </mxCell>
        <mxCell id="9OIzMS0RnzyLxtHH9ZPI-21" value="Saved Successfully" style="html=1;verticalAlign=bottom;endArrow=open;dashed=1;endSize=8;edgeStyle=elbowEdgeStyle;elbow=vertical;curved=0;rounded=0;fontSize=11;" parent="9OIzMS0RnzyLxtHH9ZPI-1" edge="1">
          <mxGeometry relative="1" as="geometry">
            <mxPoint x="298" y="350" as="targetPoint" />
            <Array as="points">
              <mxPoint x="363" y="350" />
              <mxPoint x="403" y="390" />
              <mxPoint x="383" y="380" />
              <mxPoint x="393" y="380" />
            </Array>
            <mxPoint x="498" y="350" as="sourcePoint" />
          </mxGeometry>
        </mxCell>
        <mxCell id="9OIzMS0RnzyLxtHH9ZPI-22" value="Saved Not Saved" style="html=1;verticalAlign=bottom;endArrow=open;dashed=1;endSize=8;edgeStyle=elbowEdgeStyle;elbow=vertical;curved=0;rounded=0;fontSize=11;" parent="9OIzMS0RnzyLxtHH9ZPI-1" edge="1">
          <mxGeometry relative="1" as="geometry">
            <mxPoint x="298" y="420" as="targetPoint" />
            <Array as="points">
              <mxPoint x="363" y="420" />
              <mxPoint x="403" y="460" />
              <mxPoint x="383" y="450" />
              <mxPoint x="393" y="450" />
            </Array>
            <mxPoint x="498" y="420" as="sourcePoint" />
            <mxPoint as="offset" />
          </mxGeometry>
        </mxCell>
        <mxCell id="9OIzMS0RnzyLxtHH9ZPI-23" value="Add Employee Details &amp;amp; Click Save" style="html=1;verticalAlign=bottom;endArrow=block;edgeStyle=elbowEdgeStyle;elbow=vertical;curved=0;rounded=0;fontSize=11;" parent="9OIzMS0RnzyLxtHH9ZPI-1" edge="1">
          <mxGeometry width="80" relative="1" as="geometry">
            <mxPoint x="120" y="220" as="sourcePoint" />
            <mxPoint x="296" y="220" as="targetPoint" />
          </mxGeometry>
        </mxCell>
        <mxCell id="9OIzMS0RnzyLxtHH9ZPI-24" value="Add Employee Details" style="html=1;verticalAlign=bottom;endArrow=block;edgeStyle=elbowEdgeStyle;elbow=vertical;curved=0;rounded=0;fontSize=11;" parent="9OIzMS0RnzyLxtHH9ZPI-1" edge="1">
          <mxGeometry width="80" relative="1" as="geometry">
            <mxPoint x="303" y="250" as="sourcePoint" />
            <mxPoint x="503" y="250" as="targetPoint" />
          </mxGeometry>
        </mxCell>
        <mxCell id="9OIzMS0RnzyLxtHH9ZPI-25" value="Saved Employee&amp;nbsp;Details&amp;nbsp;" style="html=1;verticalAlign=bottom;endArrow=block;edgeStyle=elbowEdgeStyle;elbow=vertical;curved=0;rounded=0;fontSize=11;" parent="9OIzMS0RnzyLxtHH9ZPI-1" edge="1">
          <mxGeometry width="80" relative="1" as="geometry">
            <mxPoint x="510" y="280" as="sourcePoint" />
            <mxPoint x="710" y="280" as="targetPoint" />
            <mxPoint as="offset" />
          </mxGeometry>
        </mxCell>
        <mxCell id="9OIzMS0RnzyLxtHH9ZPI-26" value="&lt;h2&gt;&lt;font style=&quot;font-size: 16px;&quot;&gt;Sequence Diagram - Resource Manager Add Employees to the System&amp;nbsp;&lt;/font&gt;&lt;/h2&gt;" style="text;whiteSpace=wrap;html=1;" parent="9OIzMS0RnzyLxtHH9ZPI-1" vertex="1">
          <mxGeometry x="158" y="20" width="549" height="40" as="geometry" />
        </mxCell>
        <mxCell id="9OIzMS0RnzyLxtHH9ZPI-27" value="UI" style="shape=umlLifeline;perimeter=lifelinePerimeter;whiteSpace=wrap;html=1;container=0;dropTarget=0;collapsible=0;recursiveResize=0;outlineConnect=0;portConstraint=eastwest;newEdgeStyle={&quot;edgeStyle&quot;:&quot;elbowEdgeStyle&quot;,&quot;elbow&quot;:&quot;vertical&quot;,&quot;curved&quot;:0,&quot;rounded&quot;:0};fontSize=12;" parent="9OIzMS0RnzyLxtHH9ZPI-1" vertex="1">
          <mxGeometry x="237" y="600" width="100" height="470" as="geometry" />
        </mxCell>
        <mxCell id="9OIzMS0RnzyLxtHH9ZPI-28" value="" style="html=1;points=[];perimeter=orthogonalPerimeter;outlineConnect=0;targetShapes=umlLifeline;portConstraint=eastwest;newEdgeStyle={&quot;edgeStyle&quot;:&quot;elbowEdgeStyle&quot;,&quot;elbow&quot;:&quot;vertical&quot;,&quot;curved&quot;:0,&quot;rounded&quot;:0};fontSize=11;" parent="9OIzMS0RnzyLxtHH9ZPI-27" vertex="1">
          <mxGeometry x="45" y="60" width="10" height="360" as="geometry" />
        </mxCell>
        <mxCell id="9OIzMS0RnzyLxtHH9ZPI-29" value="" style="shape=umlDestroy;whiteSpace=wrap;html=1;strokeWidth=3;targetShapes=umlLifeline;fontSize=12;" parent="9OIzMS0RnzyLxtHH9ZPI-27" vertex="1">
          <mxGeometry x="40" y="450" width="20" height="20" as="geometry" />
        </mxCell>
        <mxCell id="9OIzMS0RnzyLxtHH9ZPI-30" value="Database" style="shape=umlLifeline;perimeter=lifelinePerimeter;whiteSpace=wrap;html=1;container=0;dropTarget=0;collapsible=0;recursiveResize=0;outlineConnect=0;portConstraint=eastwest;newEdgeStyle={&quot;edgeStyle&quot;:&quot;elbowEdgeStyle&quot;,&quot;elbow&quot;:&quot;vertical&quot;,&quot;curved&quot;:0,&quot;rounded&quot;:0};fontSize=12;" parent="9OIzMS0RnzyLxtHH9ZPI-1" vertex="1">
          <mxGeometry x="655" y="600" width="100" height="470" as="geometry" />
        </mxCell>
        <mxCell id="9OIzMS0RnzyLxtHH9ZPI-31" value="" style="html=1;points=[];perimeter=orthogonalPerimeter;outlineConnect=0;targetShapes=umlLifeline;portConstraint=eastwest;newEdgeStyle={&quot;edgeStyle&quot;:&quot;elbowEdgeStyle&quot;,&quot;elbow&quot;:&quot;vertical&quot;,&quot;curved&quot;:0,&quot;rounded&quot;:0};fontSize=11;" parent="9OIzMS0RnzyLxtHH9ZPI-30" vertex="1">
          <mxGeometry x="47" y="90" width="10" height="340" as="geometry" />
        </mxCell>
        <mxCell id="9OIzMS0RnzyLxtHH9ZPI-32" value="" style="shape=umlDestroy;whiteSpace=wrap;html=1;strokeWidth=3;targetShapes=umlLifeline;fontSize=12;" parent="9OIzMS0RnzyLxtHH9ZPI-30" vertex="1">
          <mxGeometry x="40" y="450" width="20" height="20" as="geometry" />
        </mxCell>
        <mxCell id="9OIzMS0RnzyLxtHH9ZPI-33" value="" style="endArrow=none;dashed=1;html=1;rounded=0;fontSize=11;" parent="9OIzMS0RnzyLxtHH9ZPI-1" target="9OIzMS0RnzyLxtHH9ZPI-34" edge="1">
          <mxGeometry width="50" height="50" relative="1" as="geometry">
            <mxPoint x="106" y="1060" as="sourcePoint" />
            <mxPoint x="107" y="690" as="targetPoint" />
          </mxGeometry>
        </mxCell>
        <mxCell id="9OIzMS0RnzyLxtHH9ZPI-34" value="Resource Manager" style="shape=umlActor;verticalLabelPosition=bottom;verticalAlign=top;html=1;outlineConnect=0;fontSize=12;" parent="9OIzMS0RnzyLxtHH9ZPI-1" vertex="1">
          <mxGeometry x="97" y="580" width="20" height="40" as="geometry" />
        </mxCell>
        <mxCell id="9OIzMS0RnzyLxtHH9ZPI-35" value="System" style="shape=umlLifeline;perimeter=lifelinePerimeter;whiteSpace=wrap;html=1;container=0;dropTarget=0;collapsible=0;recursiveResize=0;outlineConnect=0;portConstraint=eastwest;newEdgeStyle={&quot;edgeStyle&quot;:&quot;elbowEdgeStyle&quot;,&quot;elbow&quot;:&quot;vertical&quot;,&quot;curved&quot;:0,&quot;rounded&quot;:0};size=40;fontSize=12;" parent="9OIzMS0RnzyLxtHH9ZPI-1" vertex="1">
          <mxGeometry x="433" y="600" width="130" height="470" as="geometry" />
        </mxCell>
        <mxCell id="9OIzMS0RnzyLxtHH9ZPI-36" value="" style="html=1;points=[];perimeter=orthogonalPerimeter;outlineConnect=0;targetShapes=umlLifeline;portConstraint=eastwest;newEdgeStyle={&quot;edgeStyle&quot;:&quot;elbowEdgeStyle&quot;,&quot;elbow&quot;:&quot;vertical&quot;,&quot;curved&quot;:0,&quot;rounded&quot;:0};fontSize=11;" parent="9OIzMS0RnzyLxtHH9ZPI-35" vertex="1">
          <mxGeometry x="60" y="70" width="10" height="350" as="geometry" />
        </mxCell>
        <mxCell id="9OIzMS0RnzyLxtHH9ZPI-37" value="" style="shape=umlDestroy;whiteSpace=wrap;html=1;strokeWidth=3;targetShapes=umlLifeline;fontSize=12;" parent="9OIzMS0RnzyLxtHH9ZPI-35" vertex="1">
          <mxGeometry x="55" y="450" width="20" height="20" as="geometry" />
        </mxCell>
        <mxCell id="9OIzMS0RnzyLxtHH9ZPI-38" value="Entered Details Not Updated" style="html=1;verticalAlign=bottom;endArrow=open;dashed=1;endSize=8;edgeStyle=elbowEdgeStyle;elbow=vertical;curved=0;rounded=0;fontSize=11;" parent="9OIzMS0RnzyLxtHH9ZPI-1" edge="1">
          <mxGeometry x="-0.0008" relative="1" as="geometry">
            <mxPoint x="507" y="940" as="targetPoint" />
            <Array as="points">
              <mxPoint x="557" y="940" />
              <mxPoint x="647" y="1010" />
              <mxPoint x="627" y="1000" />
              <mxPoint x="607" y="990" />
              <mxPoint x="587" y="980" />
              <mxPoint x="602" y="960" />
            </Array>
            <mxPoint as="offset" />
            <mxPoint x="697" y="940" as="sourcePoint" />
          </mxGeometry>
        </mxCell>
        <mxCell id="9OIzMS0RnzyLxtHH9ZPI-39" value="" style="html=1;verticalAlign=bottom;endArrow=open;dashed=1;endSize=8;edgeStyle=elbowEdgeStyle;elbow=vertical;curved=0;rounded=0;fontSize=11;" parent="9OIzMS0RnzyLxtHH9ZPI-1" edge="1">
          <mxGeometry x="-0.206" relative="1" as="geometry">
            <mxPoint x="498" y="872.5" as="targetPoint" />
            <Array as="points">
              <mxPoint x="552" y="872.5" />
              <mxPoint x="592" y="912.5" />
              <mxPoint x="572" y="902.5" />
              <mxPoint x="582" y="902.5" />
            </Array>
            <mxPoint x="697" y="872.5" as="sourcePoint" />
            <mxPoint as="offset" />
          </mxGeometry>
        </mxCell>
        <mxCell id="9OIzMS0RnzyLxtHH9ZPI-40" value="Entered Details Update Successfully" style="edgeLabel;html=1;align=center;verticalAlign=middle;resizable=0;points=[];fontSize=11;" parent="9OIzMS0RnzyLxtHH9ZPI-39" vertex="1" connectable="0">
          <mxGeometry x="-0.0814" y="-3" relative="1" as="geometry">
            <mxPoint y="-8" as="offset" />
          </mxGeometry>
        </mxCell>
        <mxCell id="9OIzMS0RnzyLxtHH9ZPI-41" value="Alternative" style="shape=umlFrame;whiteSpace=wrap;html=1;pointerEvents=0;fontSize=11;" parent="9OIzMS0RnzyLxtHH9ZPI-1" vertex="1">
          <mxGeometry x="61" y="850" width="690" height="120" as="geometry" />
        </mxCell>
        <mxCell id="9OIzMS0RnzyLxtHH9ZPI-42" value="" style="line;strokeWidth=1;fillColor=none;align=left;verticalAlign=middle;spacingTop=-1;spacingLeft=3;spacingRight=3;rotatable=0;labelPosition=right;points=[];portConstraint=eastwest;strokeColor=inherit;fontSize=11;" parent="9OIzMS0RnzyLxtHH9ZPI-1" vertex="1">
          <mxGeometry x="61" y="911.25" width="694" height="8" as="geometry" />
        </mxCell>
        <mxCell id="9OIzMS0RnzyLxtHH9ZPI-43" value="Display Employee&lt;br style=&quot;font-size: 11px;&quot;&gt;Details Updated Successfully&amp;nbsp;" style="html=1;verticalAlign=bottom;endArrow=block;edgeStyle=elbowEdgeStyle;elbow=vertical;curved=0;rounded=0;dashed=1;fontSize=11;" parent="9OIzMS0RnzyLxtHH9ZPI-1" edge="1">
          <mxGeometry y="-5" width="80" relative="1" as="geometry">
            <mxPoint x="282" y="901.25" as="sourcePoint" />
            <mxPoint x="102" y="901.25" as="targetPoint" />
            <Array as="points">
              <mxPoint x="207" y="901.25" />
            </Array>
            <mxPoint as="offset" />
          </mxGeometry>
        </mxCell>
        <mxCell id="9OIzMS0RnzyLxtHH9ZPI-44" value="Display Error Message&amp;nbsp;" style="html=1;verticalAlign=bottom;endArrow=block;edgeStyle=elbowEdgeStyle;elbow=vertical;curved=0;rounded=0;dashed=1;fontSize=11;" parent="9OIzMS0RnzyLxtHH9ZPI-1" edge="1">
          <mxGeometry width="80" relative="1" as="geometry">
            <mxPoint x="276" y="955.25" as="sourcePoint" />
            <mxPoint x="106" y="955.25" as="targetPoint" />
            <mxPoint as="offset" />
          </mxGeometry>
        </mxCell>
        <mxCell id="9OIzMS0RnzyLxtHH9ZPI-45" value="&lt;span style=&quot;font-size: 11px;&quot;&gt;&lt;b style=&quot;font-size: 11px;&quot;&gt;[if Employee Details Updated ]&lt;/b&gt;&lt;/span&gt;" style="text;html=1;strokeColor=none;fillColor=none;align=left;verticalAlign=middle;whiteSpace=wrap;rounded=0;fontSize=11;" parent="9OIzMS0RnzyLxtHH9ZPI-1" vertex="1">
          <mxGeometry x="117" y="850" width="179" height="22.5" as="geometry" />
        </mxCell>
        <mxCell id="9OIzMS0RnzyLxtHH9ZPI-46" value="&lt;font style=&quot;font-size: 11px;&quot;&gt;&lt;b style=&quot;font-size: 11px;&quot;&gt;[else]&lt;/b&gt;&lt;/font&gt;" style="text;html=1;strokeColor=none;fillColor=none;align=left;verticalAlign=middle;whiteSpace=wrap;rounded=0;fontSize=11;" parent="9OIzMS0RnzyLxtHH9ZPI-1" vertex="1">
          <mxGeometry x="62" y="919.25" width="80" height="10" as="geometry" />
        </mxCell>
        <mxCell id="9OIzMS0RnzyLxtHH9ZPI-47" value="Changed Necessary Details&amp;nbsp;" style="html=1;verticalAlign=bottom;endArrow=block;edgeStyle=elbowEdgeStyle;elbow=vertical;curved=0;rounded=0;fontSize=11;" parent="9OIzMS0RnzyLxtHH9ZPI-1" edge="1">
          <mxGeometry width="80" relative="1" as="geometry">
            <mxPoint x="109" y="710" as="sourcePoint" />
            <mxPoint x="287" y="710" as="targetPoint" />
            <Array as="points">
              <mxPoint x="108" y="710" />
            </Array>
          </mxGeometry>
        </mxCell>
        <mxCell id="9OIzMS0RnzyLxtHH9ZPI-48" value="Changed Details&amp;nbsp;" style="html=1;verticalAlign=bottom;endArrow=block;edgeStyle=elbowEdgeStyle;elbow=vertical;curved=0;rounded=0;fontSize=11;" parent="9OIzMS0RnzyLxtHH9ZPI-1" edge="1">
          <mxGeometry width="80" relative="1" as="geometry">
            <mxPoint x="289.75" y="760" as="sourcePoint" />
            <mxPoint x="491.25" y="760" as="targetPoint" />
            <Array as="points" />
          </mxGeometry>
        </mxCell>
        <mxCell id="9OIzMS0RnzyLxtHH9ZPI-49" value="Update Entered Details&amp;nbsp;" style="html=1;verticalAlign=bottom;endArrow=block;edgeStyle=elbowEdgeStyle;elbow=vertical;curved=0;rounded=0;fontSize=11;" parent="9OIzMS0RnzyLxtHH9ZPI-1" edge="1">
          <mxGeometry width="80" relative="1" as="geometry">
            <mxPoint x="507" y="800" as="sourcePoint" />
            <mxPoint x="707" y="800" as="targetPoint" />
            <Array as="points" />
          </mxGeometry>
        </mxCell>
        <mxCell id="9OIzMS0RnzyLxtHH9ZPI-50" value="" style="html=1;verticalAlign=bottom;endArrow=open;dashed=1;endSize=8;edgeStyle=elbowEdgeStyle;elbow=vertical;curved=0;rounded=0;fontSize=11;" parent="9OIzMS0RnzyLxtHH9ZPI-1" edge="1">
          <mxGeometry x="-0.206" relative="1" as="geometry">
            <mxPoint x="295" y="882.5" as="targetPoint" />
            <Array as="points">
              <mxPoint x="349" y="882.5" />
              <mxPoint x="389" y="922.5" />
              <mxPoint x="369" y="912.5" />
              <mxPoint x="379" y="912.5" />
            </Array>
            <mxPoint x="494" y="882.5" as="sourcePoint" />
            <mxPoint as="offset" />
          </mxGeometry>
        </mxCell>
        <mxCell id="9OIzMS0RnzyLxtHH9ZPI-51" value="Entered Details Update Successfully" style="edgeLabel;html=1;align=center;verticalAlign=middle;resizable=0;points=[];fontSize=11;" parent="9OIzMS0RnzyLxtHH9ZPI-50" vertex="1" connectable="0">
          <mxGeometry x="-0.0814" y="-3" relative="1" as="geometry">
            <mxPoint x="-13" y="-7" as="offset" />
          </mxGeometry>
        </mxCell>
        <mxCell id="9OIzMS0RnzyLxtHH9ZPI-52" value="Entered Details Not Updated" style="html=1;verticalAlign=bottom;endArrow=open;dashed=1;endSize=8;edgeStyle=elbowEdgeStyle;elbow=vertical;curved=0;rounded=0;fontSize=11;" parent="9OIzMS0RnzyLxtHH9ZPI-1" edge="1">
          <mxGeometry x="-0.0008" relative="1" as="geometry">
            <mxPoint x="297" y="950" as="targetPoint" />
            <Array as="points">
              <mxPoint x="349.5" y="950" />
              <mxPoint x="439.5" y="1020" />
              <mxPoint x="419.5" y="1010" />
              <mxPoint x="399.5" y="1000" />
              <mxPoint x="379.5" y="990" />
              <mxPoint x="394.5" y="970" />
            </Array>
            <mxPoint as="offset" />
            <mxPoint x="489.5" y="950" as="sourcePoint" />
          </mxGeometry>
        </mxCell>
        <mxCell id="9OIzMS0RnzyLxtHH9ZPI-53" value="&lt;h2&gt;&lt;font style=&quot;font-size: 16px;&quot;&gt;Sequence Diagram - Resource Manager Update Existing Employees in the System&amp;nbsp;&lt;/font&gt;&lt;/h2&gt;" style="text;whiteSpace=wrap;html=1;" parent="9OIzMS0RnzyLxtHH9ZPI-1" vertex="1">
          <mxGeometry x="110" y="530" width="640" height="40" as="geometry" />
        </mxCell>
      </root>
    </mxGraphModel>
  </diagram>
  <diagram name="3" id="8zDeG7kmHWwBgasvA_PY">
    <mxGraphModel dx="1032" dy="580" grid="1" gridSize="10" guides="1" tooltips="1" connect="1" arrows="1" fold="1" page="1" pageScale="1" pageWidth="827" pageHeight="1169" math="0" shadow="0">
      <root>
        <mxCell id="ObRkV-OTJEWzI_JNSTpa-0" />
        <mxCell id="ObRkV-OTJEWzI_JNSTpa-1" parent="ObRkV-OTJEWzI_JNSTpa-0" />
        <mxCell id="dQ15fDqlSgAwNJ7IPS-T-0" value="&lt;font style=&quot;border-color: var(--border-color);&quot;&gt;&lt;b style=&quot;border-color: var(--border-color); font-size: 16px;&quot;&gt;Sequence Diagram - Resource Manager Send Feedback for the Senior Project Manager&#39;s Requests&lt;/b&gt;&lt;/font&gt;" style="text;html=1;strokeColor=none;fillColor=none;align=center;verticalAlign=middle;whiteSpace=wrap;rounded=0;" vertex="1" parent="ObRkV-OTJEWzI_JNSTpa-1">
          <mxGeometry x="53" y="30" width="757" height="30" as="geometry" />
        </mxCell>
        <mxCell id="dQ15fDqlSgAwNJ7IPS-T-1" value="UI" style="shape=umlLifeline;perimeter=lifelinePerimeter;whiteSpace=wrap;html=1;container=0;dropTarget=0;collapsible=0;recursiveResize=0;outlineConnect=0;portConstraint=eastwest;newEdgeStyle={&quot;edgeStyle&quot;:&quot;elbowEdgeStyle&quot;,&quot;elbow&quot;:&quot;vertical&quot;,&quot;curved&quot;:0,&quot;rounded&quot;:0};" vertex="1" parent="ObRkV-OTJEWzI_JNSTpa-1">
          <mxGeometry x="243" y="95" width="100" height="535" as="geometry" />
        </mxCell>
        <mxCell id="dQ15fDqlSgAwNJ7IPS-T-2" value="" style="html=1;points=[];perimeter=orthogonalPerimeter;outlineConnect=0;targetShapes=umlLifeline;portConstraint=eastwest;newEdgeStyle={&quot;edgeStyle&quot;:&quot;elbowEdgeStyle&quot;,&quot;elbow&quot;:&quot;vertical&quot;,&quot;curved&quot;:0,&quot;rounded&quot;:0};" vertex="1" parent="dQ15fDqlSgAwNJ7IPS-T-1">
          <mxGeometry x="45" y="80" width="10" height="430" as="geometry" />
        </mxCell>
        <mxCell id="dQ15fDqlSgAwNJ7IPS-T-3" value="" style="shape=umlDestroy;whiteSpace=wrap;html=1;strokeWidth=3;targetShapes=umlLifeline;" vertex="1" parent="dQ15fDqlSgAwNJ7IPS-T-1">
          <mxGeometry x="40" y="515" width="20" height="20" as="geometry" />
        </mxCell>
        <mxCell id="dQ15fDqlSgAwNJ7IPS-T-4" value="Database" style="shape=umlLifeline;perimeter=lifelinePerimeter;whiteSpace=wrap;html=1;container=0;dropTarget=0;collapsible=0;recursiveResize=0;outlineConnect=0;portConstraint=eastwest;newEdgeStyle={&quot;edgeStyle&quot;:&quot;elbowEdgeStyle&quot;,&quot;elbow&quot;:&quot;vertical&quot;,&quot;curved&quot;:0,&quot;rounded&quot;:0};" vertex="1" parent="ObRkV-OTJEWzI_JNSTpa-1">
          <mxGeometry x="683" y="95" width="100" height="535" as="geometry" />
        </mxCell>
        <mxCell id="dQ15fDqlSgAwNJ7IPS-T-5" value="" style="html=1;points=[];perimeter=orthogonalPerimeter;outlineConnect=0;targetShapes=umlLifeline;portConstraint=eastwest;newEdgeStyle={&quot;edgeStyle&quot;:&quot;elbowEdgeStyle&quot;,&quot;elbow&quot;:&quot;vertical&quot;,&quot;curved&quot;:0,&quot;rounded&quot;:0};" vertex="1" parent="dQ15fDqlSgAwNJ7IPS-T-4">
          <mxGeometry x="45" y="80" width="10" height="430" as="geometry" />
        </mxCell>
        <mxCell id="dQ15fDqlSgAwNJ7IPS-T-6" value="" style="shape=umlDestroy;whiteSpace=wrap;html=1;strokeWidth=3;targetShapes=umlLifeline;" vertex="1" parent="dQ15fDqlSgAwNJ7IPS-T-4">
          <mxGeometry x="40" y="515" width="20" height="20" as="geometry" />
        </mxCell>
        <mxCell id="dQ15fDqlSgAwNJ7IPS-T-7" value="Show the Selected Request" style="html=1;verticalAlign=bottom;endArrow=block;edgeStyle=elbowEdgeStyle;elbow=vertical;curved=0;rounded=0;" edge="1" parent="ObRkV-OTJEWzI_JNSTpa-1">
          <mxGeometry relative="1" as="geometry">
            <mxPoint x="520" y="230.5" as="sourcePoint" />
            <Array as="points">
              <mxPoint x="526.75" y="230" />
              <mxPoint x="585.25" y="100" />
              <mxPoint x="565.25" y="130" />
            </Array>
            <mxPoint x="729.5" y="230" as="targetPoint" />
          </mxGeometry>
        </mxCell>
        <mxCell id="dQ15fDqlSgAwNJ7IPS-T-8" value="Request&amp;nbsp;&amp;nbsp;Details is not available" style="html=1;verticalAlign=bottom;endArrow=open;dashed=1;endSize=8;edgeStyle=elbowEdgeStyle;elbow=vertical;curved=0;rounded=0;" edge="1" parent="ObRkV-OTJEWzI_JNSTpa-1">
          <mxGeometry x="-0.0057" relative="1" as="geometry">
            <mxPoint x="517.5" y="362" as="targetPoint" />
            <Array as="points">
              <mxPoint x="547.75" y="362" />
              <mxPoint x="637.75" y="432" />
              <mxPoint x="617.75" y="422" />
              <mxPoint x="597.75" y="412" />
              <mxPoint x="577.75" y="402" />
              <mxPoint x="592.75" y="382" />
            </Array>
            <mxPoint as="offset" />
            <mxPoint x="733" y="362" as="sourcePoint" />
          </mxGeometry>
        </mxCell>
        <mxCell id="dQ15fDqlSgAwNJ7IPS-T-9" value="Request&amp;nbsp;&amp;nbsp;Details is available" style="html=1;verticalAlign=bottom;endArrow=open;dashed=1;endSize=8;edgeStyle=elbowEdgeStyle;elbow=vertical;curved=0;rounded=0;" edge="1" parent="ObRkV-OTJEWzI_JNSTpa-1">
          <mxGeometry x="-0.0436" relative="1" as="geometry">
            <mxPoint x="518" y="280" as="targetPoint" />
            <Array as="points">
              <mxPoint x="558.25" y="280" />
              <mxPoint x="598.25" y="320" />
              <mxPoint x="578.25" y="310" />
              <mxPoint x="588.25" y="310" />
            </Array>
            <mxPoint x="728" y="280" as="sourcePoint" />
            <mxPoint as="offset" />
          </mxGeometry>
        </mxCell>
        <mxCell id="dQ15fDqlSgAwNJ7IPS-T-10" value="" style="endArrow=none;dashed=1;html=1;rounded=0;" edge="1" parent="ObRkV-OTJEWzI_JNSTpa-1">
          <mxGeometry width="50" height="50" relative="1" as="geometry">
            <mxPoint x="73" y="630" as="sourcePoint" />
            <mxPoint x="73.32999999999998" y="180" as="targetPoint" />
          </mxGeometry>
        </mxCell>
        <mxCell id="dQ15fDqlSgAwNJ7IPS-T-11" value="Resource Manger" style="shape=umlActor;verticalLabelPosition=bottom;verticalAlign=top;html=1;outlineConnect=0;" vertex="1" parent="ObRkV-OTJEWzI_JNSTpa-1">
          <mxGeometry x="63" y="105" width="20" height="40" as="geometry" />
        </mxCell>
        <mxCell id="dQ15fDqlSgAwNJ7IPS-T-12" value="Alternative" style="shape=umlFrame;whiteSpace=wrap;html=1;pointerEvents=0;" vertex="1" parent="ObRkV-OTJEWzI_JNSTpa-1">
          <mxGeometry x="20" y="260" width="753" height="130" as="geometry" />
        </mxCell>
        <mxCell id="dQ15fDqlSgAwNJ7IPS-T-13" value="" style="line;strokeWidth=1;fillColor=none;align=left;verticalAlign=middle;spacingTop=-1;spacingLeft=3;spacingRight=3;rotatable=0;labelPosition=right;points=[];portConstraint=eastwest;strokeColor=inherit;" vertex="1" parent="ObRkV-OTJEWzI_JNSTpa-1">
          <mxGeometry x="20" y="326" width="749" height="8" as="geometry" />
        </mxCell>
        <mxCell id="dQ15fDqlSgAwNJ7IPS-T-14" value="Display Request&amp;nbsp;Details" style="html=1;verticalAlign=bottom;endArrow=block;edgeStyle=elbowEdgeStyle;elbow=vertical;curved=0;rounded=0;dashed=1;exitX=0.025;exitY=0.735;exitDx=0;exitDy=0;exitPerimeter=0;" edge="1" parent="ObRkV-OTJEWzI_JNSTpa-1">
          <mxGeometry x="0.1266" width="80" relative="1" as="geometry">
            <mxPoint x="288.25" y="336" as="sourcePoint" />
            <mxPoint x="73" y="314.04999999999995" as="targetPoint" />
            <Array as="points">
              <mxPoint x="190.5" y="314.04999999999995" />
            </Array>
            <mxPoint x="-1" as="offset" />
          </mxGeometry>
        </mxCell>
        <mxCell id="dQ15fDqlSgAwNJ7IPS-T-15" value="Display Nothing" style="html=1;verticalAlign=bottom;endArrow=block;edgeStyle=elbowEdgeStyle;elbow=vertical;curved=0;rounded=0;dashed=1;" edge="1" parent="ObRkV-OTJEWzI_JNSTpa-1">
          <mxGeometry width="80" relative="1" as="geometry">
            <mxPoint x="285" y="380.33333333333326" as="sourcePoint" />
            <mxPoint x="70" y="380" as="targetPoint" />
          </mxGeometry>
        </mxCell>
        <mxCell id="dQ15fDqlSgAwNJ7IPS-T-16" value="&lt;b style=&quot;border-color: var(--border-color); font-size: 10px;&quot;&gt;[if Request Details&lt;/b&gt;&lt;b style=&quot;border-color: var(--border-color);&quot;&gt;&amp;nbsp;available&lt;/b&gt;&lt;b style=&quot;border-color: var(--border-color); font-size: 10px;&quot;&gt;]&lt;/b&gt;" style="text;html=1;strokeColor=none;fillColor=none;align=left;verticalAlign=middle;whiteSpace=wrap;rounded=0;" vertex="1" parent="ObRkV-OTJEWzI_JNSTpa-1">
          <mxGeometry x="89" y="260" width="151" height="10" as="geometry" />
        </mxCell>
        <mxCell id="dQ15fDqlSgAwNJ7IPS-T-17" value="&lt;font style=&quot;font-size: 10px;&quot;&gt;&lt;b&gt;[else]&lt;/b&gt;&lt;/font&gt;" style="text;html=1;strokeColor=none;fillColor=none;align=left;verticalAlign=middle;whiteSpace=wrap;rounded=0;" vertex="1" parent="ObRkV-OTJEWzI_JNSTpa-1">
          <mxGeometry x="70" y="338" width="80" height="10" as="geometry" />
        </mxCell>
        <mxCell id="dQ15fDqlSgAwNJ7IPS-T-18" value="Select the Project Requests" style="html=1;verticalAlign=bottom;endArrow=blockThin;edgeStyle=elbowEdgeStyle;elbow=vertical;curved=0;rounded=0;endFill=1;" edge="1" parent="ObRkV-OTJEWzI_JNSTpa-1">
          <mxGeometry relative="1" as="geometry">
            <mxPoint x="281.5" y="200" as="targetPoint" />
            <Array as="points">
              <mxPoint x="206" y="200" />
              <mxPoint x="173.5" y="220" />
            </Array>
            <mxPoint x="76.5" y="200" as="sourcePoint" />
            <mxPoint as="offset" />
          </mxGeometry>
        </mxCell>
        <mxCell id="dQ15fDqlSgAwNJ7IPS-T-19" value="System" style="shape=umlLifeline;perimeter=lifelinePerimeter;whiteSpace=wrap;html=1;container=0;dropTarget=0;collapsible=0;recursiveResize=0;outlineConnect=0;portConstraint=eastwest;newEdgeStyle={&quot;edgeStyle&quot;:&quot;elbowEdgeStyle&quot;,&quot;elbow&quot;:&quot;vertical&quot;,&quot;curved&quot;:0,&quot;rounded&quot;:0};" vertex="1" parent="ObRkV-OTJEWzI_JNSTpa-1">
          <mxGeometry x="443" y="95" width="140" height="535" as="geometry" />
        </mxCell>
        <mxCell id="dQ15fDqlSgAwNJ7IPS-T-20" value="" style="html=1;points=[];perimeter=orthogonalPerimeter;outlineConnect=0;targetShapes=umlLifeline;portConstraint=eastwest;newEdgeStyle={&quot;edgeStyle&quot;:&quot;elbowEdgeStyle&quot;,&quot;elbow&quot;:&quot;vertical&quot;,&quot;curved&quot;:0,&quot;rounded&quot;:0};" vertex="1" parent="dQ15fDqlSgAwNJ7IPS-T-19">
          <mxGeometry x="65" y="80" width="10" height="430" as="geometry" />
        </mxCell>
        <mxCell id="dQ15fDqlSgAwNJ7IPS-T-21" value="" style="shape=umlDestroy;whiteSpace=wrap;html=1;strokeWidth=3;targetShapes=umlLifeline;" vertex="1" parent="dQ15fDqlSgAwNJ7IPS-T-19">
          <mxGeometry x="60" y="515" width="20" height="20" as="geometry" />
        </mxCell>
        <mxCell id="dQ15fDqlSgAwNJ7IPS-T-22" value="Selected Request" style="html=1;verticalAlign=bottom;endArrow=block;edgeStyle=elbowEdgeStyle;elbow=vertical;curved=0;rounded=0;" edge="1" parent="ObRkV-OTJEWzI_JNSTpa-1">
          <mxGeometry relative="1" as="geometry">
            <mxPoint x="296" y="220" as="sourcePoint" />
            <Array as="points">
              <mxPoint x="398.5" y="220" />
              <mxPoint x="358.5" y="210" />
              <mxPoint x="428.5" y="80" />
              <mxPoint x="396" y="70" />
              <mxPoint x="376" y="100" />
            </Array>
            <mxPoint x="510.25" y="220" as="targetPoint" />
          </mxGeometry>
        </mxCell>
        <mxCell id="dQ15fDqlSgAwNJ7IPS-T-23" value="Request Details" style="html=1;verticalAlign=bottom;endArrow=open;dashed=1;endSize=8;edgeStyle=elbowEdgeStyle;elbow=vertical;curved=0;rounded=0;" edge="1" parent="ObRkV-OTJEWzI_JNSTpa-1">
          <mxGeometry relative="1" as="geometry">
            <mxPoint x="296" y="290" as="targetPoint" />
            <Array as="points">
              <mxPoint x="356" y="290" />
              <mxPoint x="396" y="330" />
              <mxPoint x="376" y="320" />
              <mxPoint x="386" y="320" />
            </Array>
            <mxPoint x="510.25" y="290" as="sourcePoint" />
          </mxGeometry>
        </mxCell>
        <mxCell id="dQ15fDqlSgAwNJ7IPS-T-24" value="No Request Details" style="html=1;verticalAlign=bottom;endArrow=open;dashed=1;endSize=8;edgeStyle=elbowEdgeStyle;elbow=vertical;curved=0;rounded=0;" edge="1" parent="ObRkV-OTJEWzI_JNSTpa-1">
          <mxGeometry relative="1" as="geometry">
            <mxPoint x="298.81" y="370" as="targetPoint" />
            <Array as="points">
              <mxPoint x="358.81" y="370" />
              <mxPoint x="398.81" y="410" />
              <mxPoint x="378.81" y="400" />
              <mxPoint x="388.81" y="400" />
            </Array>
            <mxPoint x="512.19" y="370" as="sourcePoint" />
          </mxGeometry>
        </mxCell>
        <mxCell id="dQ15fDqlSgAwNJ7IPS-T-25" value="Alternative" style="shape=umlFrame;whiteSpace=wrap;html=1;pointerEvents=0;" vertex="1" parent="ObRkV-OTJEWzI_JNSTpa-1">
          <mxGeometry x="22.5" y="450" width="753" height="130" as="geometry" />
        </mxCell>
        <mxCell id="dQ15fDqlSgAwNJ7IPS-T-26" value="" style="line;strokeWidth=1;fillColor=none;align=left;verticalAlign=middle;spacingTop=-1;spacingLeft=3;spacingRight=3;rotatable=0;labelPosition=right;points=[];portConstraint=eastwest;strokeColor=inherit;" vertex="1" parent="ObRkV-OTJEWzI_JNSTpa-1">
          <mxGeometry x="22.5" y="516" width="749" height="8" as="geometry" />
        </mxCell>
        <mxCell id="dQ15fDqlSgAwNJ7IPS-T-27" value="Display Feedback Status &lt;br&gt;Updated Successfully&amp;nbsp;" style="html=1;verticalAlign=bottom;endArrow=block;edgeStyle=elbowEdgeStyle;elbow=vertical;curved=0;rounded=0;dashed=1;" edge="1" parent="ObRkV-OTJEWzI_JNSTpa-1">
          <mxGeometry x="0.1266" width="80" relative="1" as="geometry">
            <mxPoint x="290" y="510" as="sourcePoint" />
            <mxPoint x="75.5" y="504.04999999999995" as="targetPoint" />
            <Array as="points">
              <mxPoint x="193" y="504.04999999999995" />
            </Array>
            <mxPoint x="-1" as="offset" />
          </mxGeometry>
        </mxCell>
        <mxCell id="dQ15fDqlSgAwNJ7IPS-T-28" value="Display Error Message" style="html=1;verticalAlign=bottom;endArrow=block;edgeStyle=elbowEdgeStyle;elbow=vertical;curved=0;rounded=0;dashed=1;" edge="1" parent="ObRkV-OTJEWzI_JNSTpa-1">
          <mxGeometry width="80" relative="1" as="geometry">
            <mxPoint x="287.5" y="570.3333333333333" as="sourcePoint" />
            <mxPoint x="72.5" y="570" as="targetPoint" />
          </mxGeometry>
        </mxCell>
        <mxCell id="dQ15fDqlSgAwNJ7IPS-T-29" value="&lt;span style=&quot;font-size: 10px;&quot;&gt;&lt;b&gt;[if Feedback status Updated ]&lt;/b&gt;&lt;/span&gt;" style="text;html=1;strokeColor=none;fillColor=none;align=left;verticalAlign=middle;whiteSpace=wrap;rounded=0;" vertex="1" parent="ObRkV-OTJEWzI_JNSTpa-1">
          <mxGeometry x="91.5" y="450" width="168.5" height="10" as="geometry" />
        </mxCell>
        <mxCell id="dQ15fDqlSgAwNJ7IPS-T-30" value="&lt;font style=&quot;font-size: 10px;&quot;&gt;&lt;b&gt;[else]&lt;/b&gt;&lt;/font&gt;" style="text;html=1;strokeColor=none;fillColor=none;align=left;verticalAlign=middle;whiteSpace=wrap;rounded=0;" vertex="1" parent="ObRkV-OTJEWzI_JNSTpa-1">
          <mxGeometry x="72.5" y="528" width="80" height="10" as="geometry" />
        </mxCell>
        <mxCell id="dQ15fDqlSgAwNJ7IPS-T-31" value="Feedback Status updated Successfully" style="html=1;verticalAlign=bottom;endArrow=open;dashed=1;endSize=8;edgeStyle=elbowEdgeStyle;elbow=vertical;curved=0;rounded=0;" edge="1" parent="ObRkV-OTJEWzI_JNSTpa-1">
          <mxGeometry relative="1" as="geometry">
            <mxPoint x="298.5" y="480" as="targetPoint" />
            <Array as="points">
              <mxPoint x="358.5" y="480" />
              <mxPoint x="398.5" y="520" />
              <mxPoint x="378.5" y="510" />
              <mxPoint x="388.5" y="510" />
            </Array>
            <mxPoint x="512.75" y="480" as="sourcePoint" />
          </mxGeometry>
        </mxCell>
        <mxCell id="dQ15fDqlSgAwNJ7IPS-T-32" value="Feedback Status Not updated&amp;nbsp;" style="html=1;verticalAlign=bottom;endArrow=open;dashed=1;endSize=8;edgeStyle=elbowEdgeStyle;elbow=vertical;curved=0;rounded=0;" edge="1" parent="ObRkV-OTJEWzI_JNSTpa-1">
          <mxGeometry relative="1" as="geometry">
            <mxPoint x="301.31" y="560" as="targetPoint" />
            <Array as="points">
              <mxPoint x="361.31" y="560" />
              <mxPoint x="401.31" y="600" />
              <mxPoint x="381.31" y="590" />
              <mxPoint x="391.31" y="590" />
            </Array>
            <mxPoint x="514.69" y="560" as="sourcePoint" />
          </mxGeometry>
        </mxCell>
        <mxCell id="dQ15fDqlSgAwNJ7IPS-T-33" value="add feedback Status to the request" style="html=1;verticalAlign=bottom;endArrow=blockThin;edgeStyle=elbowEdgeStyle;elbow=vertical;curved=0;rounded=0;endFill=1;" edge="1" parent="ObRkV-OTJEWzI_JNSTpa-1">
          <mxGeometry relative="1" as="geometry">
            <mxPoint x="288" y="420" as="targetPoint" />
            <Array as="points">
              <mxPoint x="212.5" y="420" />
              <mxPoint x="180" y="440" />
            </Array>
            <mxPoint x="70" y="420" as="sourcePoint" />
            <mxPoint as="offset" />
          </mxGeometry>
        </mxCell>
        <mxCell id="dQ15fDqlSgAwNJ7IPS-T-34" value="Added Feedback Status" style="html=1;verticalAlign=bottom;endArrow=block;edgeStyle=elbowEdgeStyle;elbow=horizontal;curved=0;rounded=0;" edge="1" parent="ObRkV-OTJEWzI_JNSTpa-1">
          <mxGeometry relative="1" as="geometry">
            <mxPoint x="296" y="430" as="sourcePoint" />
            <Array as="points">
              <mxPoint x="398.5" y="430" />
              <mxPoint x="358.5" y="420" />
              <mxPoint x="428.5" y="290" />
              <mxPoint x="396" y="280" />
              <mxPoint x="376" y="310" />
            </Array>
            <mxPoint x="510.25" y="430" as="targetPoint" />
          </mxGeometry>
        </mxCell>
        <mxCell id="dQ15fDqlSgAwNJ7IPS-T-35" value="Update Feedback Status&amp;nbsp;" style="html=1;verticalAlign=bottom;endArrow=block;edgeStyle=elbowEdgeStyle;elbow=vertical;curved=0;rounded=0;fontSize=11;" edge="1" parent="ObRkV-OTJEWzI_JNSTpa-1">
          <mxGeometry width="80" relative="1" as="geometry">
            <mxPoint x="520" y="440" as="sourcePoint" />
            <mxPoint x="720" y="440" as="targetPoint" />
            <Array as="points" />
          </mxGeometry>
        </mxCell>
        <mxCell id="dQ15fDqlSgAwNJ7IPS-T-36" value="Feedback Status Not updated&amp;nbsp;" style="html=1;verticalAlign=bottom;endArrow=open;dashed=1;endSize=8;edgeStyle=elbowEdgeStyle;elbow=vertical;curved=0;rounded=0;fontSize=11;" edge="1" parent="ObRkV-OTJEWzI_JNSTpa-1">
          <mxGeometry x="-0.0008" relative="1" as="geometry">
            <mxPoint x="519" y="538" as="targetPoint" />
            <Array as="points">
              <mxPoint x="569" y="538" />
              <mxPoint x="659" y="608" />
              <mxPoint x="639" y="598" />
              <mxPoint x="619" y="588" />
              <mxPoint x="599" y="578" />
              <mxPoint x="614" y="558" />
            </Array>
            <mxPoint as="offset" />
            <mxPoint x="728" y="538" as="sourcePoint" />
          </mxGeometry>
        </mxCell>
        <mxCell id="dQ15fDqlSgAwNJ7IPS-T-37" value="" style="html=1;verticalAlign=bottom;endArrow=open;dashed=1;endSize=8;edgeStyle=elbowEdgeStyle;elbow=vertical;curved=0;rounded=0;fontSize=11;exitX=0.2;exitY=0.68;exitDx=0;exitDy=0;exitPerimeter=0;" edge="1" parent="ObRkV-OTJEWzI_JNSTpa-1" source="dQ15fDqlSgAwNJ7IPS-T-5">
          <mxGeometry x="-0.206" relative="1" as="geometry">
            <mxPoint x="510" y="467.5" as="targetPoint" />
            <Array as="points">
              <mxPoint x="564" y="467.5" />
              <mxPoint x="604" y="507.5" />
              <mxPoint x="584" y="497.5" />
              <mxPoint x="594" y="497.5" />
            </Array>
            <mxPoint x="709" y="467.5" as="sourcePoint" />
            <mxPoint as="offset" />
          </mxGeometry>
        </mxCell>
        <mxCell id="dQ15fDqlSgAwNJ7IPS-T-38" value="Feedback Status updated Successfully" style="edgeLabel;html=1;align=center;verticalAlign=middle;resizable=0;points=[];fontSize=11;" vertex="1" connectable="0" parent="dQ15fDqlSgAwNJ7IPS-T-37">
          <mxGeometry x="-0.0814" y="-3" relative="1" as="geometry">
            <mxPoint y="-8" as="offset" />
          </mxGeometry>
        </mxCell>
      </root>
    </mxGraphModel>
  </diagram>
</mxfile>
